<?xml version="1.0" encoding="UTF-8" standalone="no"?>
<!DOCTYPE svg PUBLIC "-//W3C//DTD SVG 1.1//EN"
 "http://www.w3.org/Graphics/SVG/1.1/DTD/svg11.dtd">
<!-- Generated by graphviz version 2.30.1 (20140110.0959)
 -->
<!-- Title: models_diagram Pages: 1 -->
<svg width="876pt" height="430pt"
 viewBox="0.00 0.00 876.00 430.00" xmlns="http://www.w3.org/2000/svg" xmlns:xlink="http://www.w3.org/1999/xlink">
<g id="graph0" class="graph" transform="scale(1 1) rotate(0) translate(4 426)">
<title>models_diagram</title>
<polygon fill="white" stroke="white" points="-4,5 -4,-426 873,-426 873,5 -4,5"/>
<!-- _diagram_info -->
<g id="node1" class="node"><title>_diagram_info</title>
<text text-anchor="start" x="141" y="-407.6" font-family="Times,serif" font-size="13.00">Models diagram</text>
<text text-anchor="start" x="141" y="-393.6" font-family="Times,serif" font-size="13.00">Date: Nov 10 2014 &#45; 14:56</text>
<text text-anchor="start" x="141" y="-379.6" font-family="Times,serif" font-size="13.00">Migration version: 20141014143637</text>
<text text-anchor="start" x="141" y="-365.6" font-family="Times,serif" font-size="13.00">Generated by RailRoady 1.1.1</text>
<text text-anchor="start" x="141" y="-351.6" font-family="Times,serif" font-size="13.00">http://railroady.prestonlee.com</text>
</g>
<!-- ModelGroup -->
<g id="node2" class="node"><title>ModelGroup</title>
<ellipse fill="none" stroke="black" cx="219" cy="-288" rx="56.3173" ry="18"/>
<text text-anchor="middle" x="219" y="-284.3" font-family="Times,serif" font-size="14.00">ModelGroup</text>
</g>
<!-- Model -->
<g id="node10" class="node"><title>Model</title>
<ellipse fill="none" stroke="black" cx="304" cy="-180" rx="34.1708" ry="18"/>
<text text-anchor="middle" x="304" y="-176.3" font-family="Times,serif" font-size="14.00">Model</text>
</g>
<!-- ModelGroup&#45;&gt;Model -->
<g id="edge1" class="edge"><title>ModelGroup&#45;&gt;Model</title>
<path fill="none" stroke="#abe5c0" d="M237.306,-264.171C251.324,-246.691 270.606,-222.644 284.834,-204.902"/>
<ellipse fill="none" stroke="#abe5c0" cx="234.784" cy="-267.317" rx="4.00002" ry="4.00002"/>
<polygon fill="#abe5c0" stroke="#abe5c0" points="285.11,-204.556 294.877,-199.57 288.238,-200.656 291.366,-196.755 291.366,-196.755 291.366,-196.755 288.238,-200.656 287.856,-193.94 285.11,-204.556 285.11,-204.556"/>
</g>
<!-- ReadingTarget -->
<g id="node5" class="node"><title>ReadingTarget</title>
<ellipse fill="none" stroke="black" cx="158" cy="-180" rx="63.0666" ry="18"/>
<text text-anchor="middle" x="158" y="-176.3" font-family="Times,serif" font-size="14.00">ReadingTarget</text>
</g>
<!-- ModelGroup&#45;&gt;ReadingTarget -->
<g id="edge2" class="edge"><title>ModelGroup&#45;&gt;ReadingTarget</title>
<path fill="none" stroke="#61ed95" d="M205.072,-262.796C195.46,-246.095 182.696,-223.915 172.885,-206.865"/>
<ellipse fill="none" stroke="#61ed95" cx="207.204" cy="-266.502" rx="4.00002" ry="4.00002"/>
<polygon fill="#61ed95" stroke="#61ed95" points="172.764,-206.656 171.677,-195.744 170.27,-202.322 167.776,-197.988 167.776,-197.988 167.776,-197.988 170.27,-202.322 163.876,-200.233 172.764,-206.656 172.764,-206.656"/>
</g>
<!-- Location -->
<g id="node3" class="node"><title>Location</title>
<ellipse fill="none" stroke="black" cx="446" cy="-288" rx="42.3701" ry="18"/>
<text text-anchor="middle" x="446" y="-284.3" font-family="Times,serif" font-size="14.00">Location</text>
</g>
<!-- Device -->
<g id="node12" class="node"><title>Device</title>
<ellipse fill="none" stroke="black" cx="458" cy="-92" rx="35.6194" ry="18"/>
<text text-anchor="middle" x="458" y="-88.3" font-family="Times,serif" font-size="14.00">Device</text>
</g>
<!-- Location&#45;&gt;Device -->
<g id="edge4" class="edge"><title>Location&#45;&gt;Device</title>
<path fill="none" stroke="#aaf329" d="M441.815,-261.951C438.237,-236.636 434.344,-196.446 439,-162 440.924,-147.763 444.986,-132.311 448.862,-119.645"/>
<ellipse fill="none" stroke="#aaf329" cx="442.414" cy="-265.98" rx="4.00001" ry="4.00001"/>
<polygon fill="#aaf329" stroke="#aaf329" points="448.981,-119.276 456.31,-111.119 450.502,-114.513 452.024,-109.75 452.024,-109.75 452.024,-109.75 450.502,-114.513 447.737,-108.38 448.981,-119.276 448.981,-119.276"/>
</g>
<!-- Contact -->
<g id="node11" class="node"><title>Contact</title>
<ellipse fill="none" stroke="black" cx="486" cy="-180" rx="38.0212" ry="18"/>
<text text-anchor="middle" x="486" y="-176.3" font-family="Times,serif" font-size="14.00">Contact</text>
</g>
<!-- Location&#45;&gt;Contact -->
<g id="edge5" class="edge"><title>Location&#45;&gt;Contact</title>
<path fill="none" stroke="#d75245" d="M455.332,-262.271C461.504,-245.914 469.594,-224.476 475.915,-207.725"/>
<ellipse fill="none" stroke="#d75245" cx="453.839" cy="-266.227" rx="4.00001" ry="4.00001"/>
<polygon fill="#d75245" stroke="#d75245" points="476.059,-207.344 483.799,-199.577 477.824,-202.666 479.589,-197.988 479.589,-197.988 479.589,-197.988 477.824,-202.666 475.379,-196.4 476.059,-207.344 476.059,-207.344"/>
</g>
<!-- Reading -->
<g id="node4" class="node"><title>Reading</title>
<ellipse fill="none" stroke="black" cx="171" cy="-18" rx="39.9464" ry="18"/>
<text text-anchor="middle" x="171" y="-14.3" font-family="Times,serif" font-size="14.00">Reading</text>
</g>
<!-- Team -->
<g id="node6" class="node"><title>Team</title>
<ellipse fill="none" stroke="black" cx="613" cy="-288" rx="31.2965" ry="18"/>
<text text-anchor="middle" x="613" y="-284.3" font-family="Times,serif" font-size="14.00">Team</text>
</g>
<!-- Technician -->
<g id="node8" class="node"><title>Technician</title>
<ellipse fill="none" stroke="black" cx="637" cy="-180" rx="50.0684" ry="18"/>
<text text-anchor="middle" x="637" y="-176.3" font-family="Times,serif" font-size="14.00">Technician</text>
</g>
<!-- Team&#45;&gt;Technician -->
<g id="edge9" class="edge"><title>Team&#45;&gt;Technician</title>
<path fill="none" stroke="#97ea4b" d="M618.659,-262.008C622.323,-245.823 627.095,-224.748 630.852,-208.152"/>
<ellipse fill="none" stroke="#97ea4b" cx="617.739" cy="-266.068" rx="4.00001" ry="4.00001"/>
<polygon fill="#97ea4b" stroke="#97ea4b" points="630.945,-207.742 637.542,-198.982 632.049,-202.865 633.154,-197.988 633.154,-197.988 633.154,-197.988 632.049,-202.865 628.765,-196.995 630.945,-207.742 630.945,-207.742"/>
</g>
<!-- Part -->
<g id="node7" class="node"><title>Part</title>
<ellipse fill="none" stroke="black" cx="359" cy="-288" rx="27" ry="18"/>
<text text-anchor="middle" x="359" y="-284.3" font-family="Times,serif" font-size="14.00">Part</text>
</g>
<!-- Technician&#45;&gt;Device -->
<g id="edge12" class="edge"><title>Technician&#45;&gt;Device</title>
<path fill="none" stroke="#8d2047" d="M588.867,-167.02C552.358,-157.824 507.803,-146.317 504,-144 492.974,-137.283 483.045,-127.124 475.259,-117.637"/>
<ellipse fill="none" stroke="#8d2047" cx="593.111" cy="-168.087" rx="4.00001" ry="4.00001"/>
<polygon fill="#8d2047" stroke="#8d2047" points="475.13,-117.471 472.547,-106.814 472.062,-113.523 468.994,-109.575 468.994,-109.575 468.994,-109.575 472.062,-113.523 465.44,-112.337 475.13,-117.471 475.13,-117.471"/>
<text text-anchor="middle" x="549.5" y="-132.3" font-family="Times,serif" font-size="14.00">primary_devices</text>
</g>
<!-- Technician&#45;&gt;Device -->
<g id="edge13" class="edge"><title>Technician&#45;&gt;Device</title>
<path fill="none" stroke="#c5ee30" d="M622.399,-155.316C615.259,-145.536 605.855,-134.897 595,-128 567.227,-110.355 530.979,-101.592 502.745,-97.2477"/>
<ellipse fill="none" stroke="#c5ee30" cx="624.688" cy="-158.608" rx="4.00002" ry="4.00002"/>
<polygon fill="#c5ee30" stroke="#c5ee30" points="502.638,-97.2328 493.363,-91.3827 497.687,-96.5358 492.736,-95.8388 492.736,-95.8388 492.736,-95.8388 497.687,-96.5358 492.109,-100.295 502.638,-97.2328 502.638,-97.2328"/>
<text text-anchor="middle" x="655.5" y="-132.3" font-family="Times,serif" font-size="14.00">backup_devices</text>
</g>
<!-- Technician&#45;&gt;Reading -->
<g id="edge14" class="edge"><title>Technician&#45;&gt;Reading</title>
<path fill="none" stroke="#059f11" d="M680.048,-163.774C698.666,-154.755 713.968,-142.304 703,-128 644.538,-51.7587 341.967,-27.8266 221.028,-21.2374"/>
<ellipse fill="none" stroke="#059f11" cx="676.156" cy="-165.533" rx="4.00002" ry="4.00002"/>
<polygon fill="#059f11" stroke="#059f11" points="220.913,-21.2314 211.164,-16.2108 215.92,-20.968 210.927,-20.7046 210.927,-20.7046 210.927,-20.7046 215.92,-20.968 210.69,-25.1984 220.913,-21.2314 220.913,-21.2314"/>
</g>
<!-- Preference -->
<g id="node13" class="node"><title>Preference</title>
<ellipse fill="none" stroke="black" cx="820" cy="-92" rx="48.1437" ry="18"/>
<text text-anchor="middle" x="820" y="-88.3" font-family="Times,serif" font-size="14.00">Preference</text>
</g>
<!-- Technician&#45;&gt;Preference -->
<g id="edge15" class="edge"><title>Technician&#45;&gt;Preference</title>
<path fill="none" stroke="#c73d07" d="M688.352,-169.04C710.568,-163.511 736.376,-155.395 758,-144 772.669,-136.27 787.094,-124.71 798.334,-114.55"/>
<ellipse fill="none" stroke="#c73d07" cx="684.234" cy="-170.028" rx="4.00001" ry="4.00001"/>
<ellipse fill="#c73d07" stroke="#c73d07" cx="801.298" cy="-111.802" rx="4.00002" ry="4.00002"/>
</g>
<!-- Counter -->
<g id="node9" class="node"><title>Counter</title>
<ellipse fill="none" stroke="black" cx="67" cy="-288" rx="38.4949" ry="18"/>
<text text-anchor="middle" x="67" y="-284.3" font-family="Times,serif" font-size="14.00">Counter</text>
</g>
<!-- Counter&#45;&gt;Reading -->
<g id="edge17" class="edge"><title>Counter&#45;&gt;Reading</title>
<path fill="none" stroke="#be6879" d="M67.995,-261.795C69.6596,-236.046 74.1088,-195.238 86,-162 102.065,-117.096 132.771,-70.6234 152.546,-43.2889"/>
<ellipse fill="none" stroke="#be6879" cx="67.7589" cy="-265.924" rx="4" ry="4"/>
<polygon fill="#be6879" stroke="#be6879" points="152.631,-43.173 162.177,-37.7763 155.59,-39.1429 158.55,-35.1128 158.55,-35.1128 158.55,-35.1128 155.59,-39.1429 154.923,-32.4493 152.631,-43.173 152.631,-43.173"/>
</g>
<!-- Counter&#45;&gt;ReadingTarget -->
<g id="edge18" class="edge"><title>Counter&#45;&gt;ReadingTarget</title>
<path fill="none" stroke="#e68a3a" d="M82.6084,-263.888C92.6642,-249.579 106.366,-231.117 120,-216 123.965,-211.604 128.411,-207.148 132.827,-202.956"/>
<ellipse fill="none" stroke="#e68a3a" cx="80.264" cy="-267.261" rx="4.00002" ry="4.00002"/>
<ellipse fill="#e68a3a" stroke="#e68a3a" cx="135.849" cy="-200.153" rx="4.00002" ry="4.00002"/>
</g>
<!-- Model&#45;&gt;Device -->
<g id="edge20" class="edge"><title>Model&#45;&gt;Device</title>
<path fill="none" stroke="#21abd9" d="M333.891,-162.307C360.322,-147.548 398.779,-126.071 425.864,-110.946"/>
<ellipse fill="none" stroke="#21abd9" cx="330.216" cy="-164.36" rx="4.00002" ry="4.00002"/>
<polygon fill="#21abd9" stroke="#21abd9" points="426.201,-110.758 437.126,-109.811 430.566,-108.32 434.932,-105.882 434.932,-105.882 434.932,-105.882 430.566,-108.32 432.738,-101.953 426.201,-110.758 426.201,-110.758"/>
</g>
<!-- Contact&#45;&gt;Device -->
<g id="edge22" class="edge"><title>Contact&#45;&gt;Device</title>
<path fill="none" stroke="#0f07d8" d="M464.476,-155.017C462.262,-151.514 460.337,-147.801 459,-144 456.373,-136.534 455.458,-128.065 455.381,-120.203"/>
<polygon fill="#0f07d8" stroke="#0f07d8" points="464.548,-155.116 466.763,-165.856 467.478,-159.167 470.409,-163.218 470.409,-163.218 470.409,-163.218 467.478,-159.167 474.055,-160.581 464.548,-155.116 464.548,-155.116"/>
<polygon fill="#0f07d8" stroke="#0f07d8" points="455.387,-120.005 460.209,-110.156 455.549,-115.007 455.711,-110.01 455.711,-110.01 455.711,-110.01 455.549,-115.007 451.214,-109.864 455.387,-120.005 455.387,-120.005"/>
</g>
<!-- Device&#45;&gt;Reading -->
<g id="edge24" class="edge"><title>Device&#45;&gt;Reading</title>
<path fill="none" stroke="#a46184" d="M419.046,-81.2275C365.952,-67.9078 271.108,-44.1142 215.346,-30.1252"/>
<ellipse fill="none" stroke="#a46184" cx="423.134" cy="-82.253" rx="4.00001" ry="4.00001"/>
<polygon fill="#a46184" stroke="#a46184" points="215.107,-30.0653 206.503,-23.2672 210.258,-28.8486 205.408,-27.6319 205.408,-27.6319 205.408,-27.6319 210.258,-28.8486 204.313,-31.9967 215.107,-30.0653 215.107,-30.0653"/>
</g>
<!-- Client -->
<g id="node14" class="node"><title>Client</title>
<ellipse fill="none" stroke="black" cx="719" cy="-234" rx="32.2457" ry="18"/>
<text text-anchor="middle" x="719" y="-230.3" font-family="Times,serif" font-size="14.00">Client</text>
</g>
<!-- Client&#45;&gt;Device -->
<g id="edge27" class="edge"><title>Client&#45;&gt;Device</title>
<path fill="none" stroke="#19aca1" d="M722.874,-207.47C724.935,-183.536 723.65,-148.458 703,-128 675.677,-100.93 566.744,-94.6047 503.712,-93.2481"/>
<ellipse fill="none" stroke="#19aca1" cx="722.417" cy="-211.759" rx="4" ry="4"/>
<polygon fill="#19aca1" stroke="#19aca1" points="503.632,-93.2468 493.715,-88.5658 498.633,-93.1559 493.634,-93.065 493.634,-93.065 493.634,-93.065 498.633,-93.1559 493.552,-97.5643 503.632,-93.2468 503.632,-93.2468"/>
</g>
<!-- ActiveRecord::Base -->
<g id="node15" class="node"><title>ActiveRecord::Base</title>
<ellipse fill="none" stroke="black" cx="446" cy="-383" rx="81.3646" ry="18"/>
<text text-anchor="middle" x="446" y="-379.3" font-family="Times,serif" font-size="14.00">ActiveRecord::Base</text>
</g>
<!-- ActiveRecord::Base&#45;&gt;ModelGroup -->
<g id="edge3" class="edge"><title>ActiveRecord::Base&#45;&gt;ModelGroup</title>
<path fill="none" stroke="black" d="M412.227,-366.479C395.514,-359.124 374.915,-350.54 356,-344 327.264,-334.065 318.31,-337.089 290,-326 274.469,-319.917 257.898,-311.407 244.674,-304.081"/>
</g>
<!-- ActiveRecord::Base&#45;&gt;Location -->
<g id="edge6" class="edge"><title>ActiveRecord::Base&#45;&gt;Location</title>
<path fill="none" stroke="black" d="M446,-364.942C446,-348.267 446,-323.01 446,-306.264"/>
</g>
<!-- ActiveRecord::Base&#45;&gt;Reading -->
<g id="edge7" class="edge"><title>ActiveRecord::Base&#45;&gt;Reading</title>
<path fill="none" stroke="black" d="M415.609,-366.236C398.551,-358.145 376.61,-348.969 356,-344 278.18,-325.238 0,-369.05 0,-289 0,-289 0,-289 0,-91 0,-34.4684 80.3656,-21.6087 130.908,-19.1111"/>
</g>
<!-- ActiveRecord::Base&#45;&gt;ReadingTarget -->
<g id="edge8" class="edge"><title>ActiveRecord::Base&#45;&gt;ReadingTarget</title>
<path fill="none" stroke="black" d="M413.707,-366.376C396.833,-358.726 375.652,-349.913 356,-344 268.104,-317.552 211.63,-376.624 153,-306 127.613,-275.419 141.076,-224.684 150.819,-198.236"/>
</g>
<!-- ActiveRecord::Base&#45;&gt;Team -->
<g id="edge10" class="edge"><title>ActiveRecord::Base&#45;&gt;Team</title>
<path fill="none" stroke="black" d="M484.954,-367.142C509.583,-357.026 541.627,-342.506 568,-326 578.288,-319.561 588.819,-311.028 597.104,-303.78"/>
</g>
<!-- ActiveRecord::Base&#45;&gt;Part -->
<g id="edge11" class="edge"><title>ActiveRecord::Base&#45;&gt;Part</title>
<path fill="none" stroke="black" d="M430.043,-364.942C413.658,-347.428 388.418,-320.447 372.849,-303.804"/>
</g>
<!-- ActiveRecord::Base&#45;&gt;Technician -->
<g id="edge16" class="edge"><title>ActiveRecord::Base&#45;&gt;Technician</title>
<path fill="none" stroke="black" d="M520.164,-375.699C566.638,-367.472 623.197,-348.691 653,-306 675.793,-273.35 658.09,-223.945 645.951,-198.111"/>
</g>
<!-- ActiveRecord::Base&#45;&gt;Counter -->
<g id="edge19" class="edge"><title>ActiveRecord::Base&#45;&gt;Counter</title>
<path fill="none" stroke="black" d="M415.604,-366.256C398.545,-358.172 376.604,-348.995 356,-344 253.767,-319.218 219.073,-361.357 120,-326 106.683,-321.247 93.6359,-312.21 83.8189,-304.257"/>
</g>
<!-- ActiveRecord::Base&#45;&gt;Model -->
<g id="edge21" class="edge"><title>ActiveRecord::Base&#45;&gt;Model</title>
<path fill="none" stroke="black" d="M405.06,-367.386C377.348,-355.297 342.379,-335.316 323,-306 301.091,-272.856 300.665,-224.093 302.295,-198.366"/>
</g>
<!-- ActiveRecord::Base&#45;&gt;Contact -->
<g id="edge23" class="edge"><title>ActiveRecord::Base&#45;&gt;Contact</title>
<path fill="none" stroke="black" d="M461.667,-365.138C473.959,-350.68 490.105,-328.65 497,-306 508.357,-268.695 498.454,-222.445 491.469,-197.998"/>
</g>
<!-- ActiveRecord::Base&#45;&gt;Device -->
<g id="edge25" class="edge"><title>ActiveRecord::Base&#45;&gt;Device</title>
<path fill="none" stroke="black" d="M465.851,-365.495C477.634,-355.015 492.309,-340.696 503,-326 537.374,-278.75 527.658,-256.186 533,-198 534.463,-182.067 542.158,-175.12 533,-162 519.721,-142.975 501.355,-159.397 484,-144 473.889,-135.03 467.183,-121.197 463.118,-110.2"/>
</g>
<!-- ActiveRecord::Base&#45;&gt;Preference -->
<g id="edge26" class="edge"><title>ActiveRecord::Base&#45;&gt;Preference</title>
<path fill="none" stroke="black" d="M521.098,-376.183C573.711,-369.611 644.29,-355.644 700,-326 783.349,-281.649 810.42,-156.117 817.686,-110.144"/>
</g>
<!-- ActiveRecord::Base&#45;&gt;Client -->
<g id="edge28" class="edge"><title>ActiveRecord::Base&#45;&gt;Client</title>
<path fill="none" stroke="black" d="M514.648,-373.358C576.307,-364.31 660.884,-348.3 686,-326 707.489,-306.92 714.994,-272.727 717.609,-252.124"/>
</g>
</g>
</svg>
